<?xml version="1.0" encoding="UTF-8"?>
<svg id="Layer_1" xmlns="http://www.w3.org/2000/svg" version="1.1" viewBox="0 0 800 800">
  <!-- Generator: Adobe Illustrator 29.1.0, SVG Export Plug-In . SVG Version: 2.1.0 Build 54)  -->
  <defs>
    <style>
      .st0 {
        fill: #fff;
      }
    </style>
  </defs>
  <path class="st0" d="M210.8,426.1h87.7v361c0,7.1,5.8,12.9,12.9,12.9h148.7c7.1,0,12.9-5.8,12.9-12.9v-359.3h100.8c6.6,0,12.1-4.9,12.8-11.4l15.3-132.9c.4-3.7-.7-7.3-3.2-10.1-2.4-2.7-6-4.3-9.6-4.3h-116.1v-83.3c0-25.1,13.5-37.8,40.2-37.8h75.9c7.1,0,12.9-5.8,12.9-12.9V13c0-7.1-5.8-12.9-12.9-12.9h-104.6c-.7,0-2.4,0-4.8,0-18.2,0-81.3,3.6-131.1,49.4-55.2,50.8-47.6,111.7-45.7,122.2v97.4h-92.1c-7.1,0-12.9,5.8-12.9,12.9v131.2c0,7.1,5.8,12.9,12.9,12.9Z"/>
</svg>