<?xml version="1.0" encoding="UTF-8"?>
<svg id="Layer_1" xmlns="http://www.w3.org/2000/svg" version="1.1" viewBox="0 0 1224 1040.9">
  <!-- Generator: Adobe Illustrator 29.1.0, SVG Export Plug-In . SVG Version: 2.1.0 Build 54)  -->
  <defs>
    <style>
      .st0 {
        fill: #323242;
      }
    </style>
  </defs>
  <g id="design">
    <path class="st0" d="M915.5,753.7l-144-144c68.7-101.6,58.2-241.1-31.7-331-101.9-101.9-267.7-101.9-369.6,0-101.9,101.9-101.9,267.7,0,369.6,89.9,89.9,229.4,100.4,331,31.7l144,144c19.4,19.4,50.9,19.4,70.3,0,19.4-19.4,19.4-50.9,0-70.3ZM417.1,601.5c-76.1-76.1-76-199.8,0-275.9,76.1-76.1,199.8-76.1,275.9,0,76.1,76.1,76.1,199.8,0,275.9-76.1,76.1-199.8,76.1-275.9,0Z"/>
  </g>
</svg>