<?xml version="1.0" encoding="UTF-8"?>
<svg id="Layer_1" xmlns="http://www.w3.org/2000/svg" version="1.1" viewBox="0 0 1200 800">
  <!-- Generator: Adobe Illustrator 29.1.0, SVG Export Plug-In . SVG Version: 2.1.0 Build 54)  -->
  <defs>
    <style>
      .st0 {
        fill: #fff;
      }
    </style>
  </defs>
  <path class="st0" d="M1144,124.9h0c-13.1-49.2-51.5-87.9-100.4-101C955.1,0,600,0,600,0,600,0,244.9,0,156.4,23.9c-48.9,13.1-87.3,51.9-100.4,101-23.7,89.1-23.7,275.1-23.7,275.1,0,0,0,186,23.7,275.1,13.1,49.2,51.5,87.9,100.4,101,88.5,23.9,443.6,23.9,443.6,23.9,0,0,355.1,0,443.6-23.9,48.9-13.1,87.3-51.9,100.4-101,23.7-89.1,23.7-275.1,23.7-275.1,0,0,0-186-23.7-275.1ZM483.9,568.8V231.2l296.8,168.8-296.8,168.8Z"/>
</svg>