<?xml version="1.0" encoding="UTF-8"?>
<svg id="Layer_1" xmlns="http://www.w3.org/2000/svg" version="1.1" xmlns:xlink="http://www.w3.org/1999/xlink" viewBox="0 0 199.9 196.3">
  <!-- Generator: Adobe Illustrator 29.1.0, SVG Export Plug-In . SVG Version: 2.1.0 Build 54)  -->
  <defs>
    <style>
      .st0 {
        stroke: #824a07;
        stroke-width: .7px;
      }

      .st0, .st1, .st2, .st3, .st4, .st5 {
        fill: none;
      }

      .st0, .st2 {
        stroke-linecap: round;
        stroke-linejoin: round;
      }

      .st6 {
        fill: #76b7b7;
      }

      .st1 {
        stroke: #6d2014;
        stroke-width: 1.1px;
      }

      .st1, .st4, .st5 {
        stroke-miterlimit: 10;
      }

      .st7 {
        fill: #fff;
      }

      .st8 {
        fill: #1f0100;
      }

      .st2 {
        stroke: #76b7b7;
        stroke-width: 3.5px;
      }

      .st9 {
        fill: #f4c587;
      }

      .st10 {
        fill: url(#radial-gradient);
      }

      .st11 {
        fill: #703321;
      }

      .st12 {
        opacity: .6;
      }

      .st13 {
        clip-path: url(#clippath-1);
      }

      .st4 {
        stroke: url(#linear-gradient);
        stroke-width: 2px;
      }

      .st14 {
        fill: #6d2014;
      }

      .st15 {
        fill: #030723;
      }

      .st16 {
        clip-path: url(#clippath-3);
      }

      .st17 {
        fill: #070f33;
      }

      .st18 {
        fill: #ed9a21;
      }

      .st5 {
        stroke: #db4958;
        stroke-width: 4.9px;
      }

      .st19 {
        fill: #a5a265;
      }

      .st20 {
        fill: #303f75;
      }

      .st21 {
        clip-path: url(#clippath-2);
      }

      .st22 {
        clip-path: url(#clippath);
      }

      .st23 {
        fill: #b56b09;
        isolation: isolate;
        opacity: .6;
      }
    </style>
    <radialGradient id="radial-gradient" cx="103.4" cy="320.1" fx="103.4" fy="320.1" r="85.6" gradientTransform="translate(0 418.9) scale(1 -1)" gradientUnits="userSpaceOnUse">
      <stop offset="0" stop-color="#ecc0b9"/>
      <stop offset=".9" stop-color="#f18da2"/>
      <stop offset="1" stop-color="#bb4571"/>
    </radialGradient>
    <clipPath id="clippath">
      <circle class="st3" cx="103.4" cy="98.8" r="85.6"/>
    </clipPath>
    <clipPath id="clippath-1">
      <circle class="st3" cx="103.4" cy="98.8" r="85.6"/>
    </clipPath>
    <clipPath id="clippath-2">
      <circle class="st3" cx="103.4" cy="98.8" r="85.6"/>
    </clipPath>
    <clipPath id="clippath-3">
      <circle class="st3" cx="103.4" cy="98.8" r="85.6"/>
    </clipPath>
    <linearGradient id="linear-gradient" x1="16.8" y1="320.1" x2="190" y2="320.1" gradientTransform="translate(0 418.9) scale(1 -1)" gradientUnits="userSpaceOnUse">
      <stop offset="0" stop-color="#fff" stop-opacity="0"/>
      <stop offset="1" stop-color="#f0b2b8"/>
    </linearGradient>
  </defs>
  <circle class="st10" cx="103.4" cy="98.8" r="85.6"/>
  <g>
    <g class="st22">
      <g>
        <circle class="st17" cx="146.2" cy="29" r="17.4"/>
        <path class="st19" d="M124.6,51.4l-4.7-5.8c-2.6-3.2-2.2-8,1.1-10.7l11-9c3.2-2.7,1.6,3.1,4.3,6.3l4.7,5.8c2.6,3.2,8.6,2.8,5.4,5.4l-11,9c-3.2,2.7-8,2.2-10.7-1.1Z"/>
        <path class="st19" d="M146.9,41.6c-1.1,1.4-2.6,2.4-4.6,2.3-2.8,0-5.4-1.9-7.4-3.7-3.1-2.9-6.3-6.9-10.3-8.3l-3.7,3c-3.2,2.7-3.7,7.5-1.1,10.7l4.7,5.8c2.7,3.2,7.5,3.7,10.7,1.1l11-9c1.1-.9,1.1-1.4.6-1.8Z"/>
        <g class="st12">
          <path class="st20" d="M152,17.7c4.7-.6,7.5,3.8,8.1,8.7.6,4.9-.8,10.2-5.5,10.8-4.7.6-3-3.5-3.6-8.4-.6-4.9-3.7-10.5,1-11.1Z"/>
        </g>
      </g>
    </g>
    <g class="st13">
      <g>
        <circle class="st17" cx="60.3" cy="27.9" r="17.4"/>
        <path class="st19" d="M81.9,50.2l4.7-5.8c2.6-3.2,2.2-8-1.1-10.7l-11-9c-3.2-2.7-1.6,3.1-4.3,6.3l-4.7,5.8c-2.7,3.2-8.6,2.8-5.4,5.4l11,9c3.2,2.7,8,2.2,10.7-1.1Z"/>
        <path class="st19" d="M59.6,40.4c1.1,1.4,2.6,2.4,4.6,2.3,2.8,0,5.4-1.9,7.4-3.7,3.1-2.9,6.3-6.9,10.3-8.3l3.7,3c3.2,2.7,3.7,7.5,1.1,10.7l-4.7,5.8c-2.6,3.2-7.5,3.7-10.7,1.1l-11-9c-1.1-.9-1.1-1.4-.6-1.8Z"/>
        <g class="st12">
          <path class="st20" d="M54.5,16.6c-4.7-.6-7.5,3.8-8.1,8.7-.6,4.9.8,10.2,5.5,10.8,4.7.6,3-3.5,3.6-8.4.6-4.9,3.7-10.5-1-11.1Z"/>
        </g>
      </g>
    </g>
    <g class="st21">
      <g>
        <g>
          <path class="st11" d="M103.4,135.3h0c-3.4,0-6.1-2.7-6.1-6.1v-14.6c0-3.4,2.7-6.1,6.1-6.1h0c3.4,0,6.1,2.7,6.1,6.1v14.6c0,3.4-2.7,6.1-6.1,6.1Z"/>
          <path class="st14" d="M103.4,108.5h0c-3.4,0-6.1,2.7-6.1,6.1v7.7c.9.3,1.9.5,2.9.5h5.9c1.2,0,2.4-.3,3.4-.8v-7.5c0-3.4-2.7-6.1-6.1-6.1Z"/>
          <g>
            <path class="st11" d="M102.2,118.2h1.5c18.6-4.2,34.3-15.5,34.2-34.5v-26.8c-.2-19-15.6-34.3-34.6-34.2h-1.5c-19,0-34.3,15.5-34.2,34.5v26.8c.2,19,17.5,29.7,34.6,34.2Z"/>
            <path class="st14" d="M110.1,97.2c-1,.7-2.1,1.4-3.2,1.9-1.1.5-2.3.9-3.4,1-1.2.2-2.4,0-3.5-.4-1.2-.4-2.2-1.1-3.2-1.8.8,1,1.7,2,2.9,2.5.6.3,1.2.5,1.9.6h1c.3,0,.7,0,1,0,1.3-.2,2.6-.6,3.7-1.3,1.1-.7,2.1-1.5,2.9-2.6Z"/>
            <path class="st14" d="M117.2,88.1c0,3.9,3,2.8,6.8,2.9,3.9,0,7,1.3,7.1-2.6,0-3.8-3-7-6.8-7.1-3.9,0-7,3-7.1,6.8Z"/>
            <path class="st14" d="M73.7,88c0,3.9,3,3.6,6.8,3.7s7,.4,7.1-3.4c0-3.8-3-7-6.8-7.1-3.9,0-7,3-7.1,6.8Z"/>
            <g>
              <path class="st7" d="M90.8,69.9c3.4,1.6,5.1,4.5,3.8,6.5-1.3,2-5.1,2.2-8.5.6-3.4-1.6-5.1-4.5-3.8-6.5,1.3-2,5.1-2.2,8.5-.6Z"/>
              <path class="st8" d="M91.9,72.7c0,2-1.6,3.5-3.5,3.5s-3.5-1.6-3.5-3.5,1.6-3.5,3.5-3.5,3.5,1.6,3.5,3.5Z"/>
              <path class="st8" d="M82.2,70.4c.1-.6.6-1.2,1.1-1.6.5-.4,1.2-.6,1.8-.8,1.3-.3,2.6,0,3.8.4,1.2.4,2.3,1,3.3,1.7,1,.8,1.8,1.7,2.3,2.8h-.1c-.7-.8-1.6-1.5-2.6-2.1-1-.5-2.1-.9-3.1-1.1-1.1-.2-2.2,0-3.2,0-1,0-2,.2-3.1.8h-.1Z"/>
              <g>
                <path class="st8" d="M84.2,69.2c-.2.4-.5.8-.8,1.1-.3.3-.8.5-1.2.6-.4.2-.9.3-1.4.2-.5,0-.9-.3-1.2-.6h0c.4.2.8.3,1.2.3.4,0,.8-.2,1.1-.4.4-.2.7-.5,1-.7.4-.2.7-.4,1.2-.6h0Z"/>
                <path class="st8" d="M84.2,69.2c-.3.4-.7.6-1.1.7-.4.2-.9.2-1.4.1-.5,0-.9,0-1.4-.3-.4-.2-.7-.6-.9-1h0c.2.3.6.6,1,.7.4.1.8.1,1.2,0,.4,0,.8-.2,1.2-.3.4,0,.8-.1,1.3-.1h0Z"/>
              </g>
              <g>
                <path class="st7" d="M115,69.9c-3.4,1.6-5.1,4.5-3.8,6.5,1.3,2,5.1,2.2,8.5.6,3.4-1.6,5.1-4.5,3.8-6.5-1.3-2-5.1-2.2-8.5-.6Z"/>
                <path class="st8" d="M113.9,72.7c0,2,1.6,3.5,3.5,3.5s3.5-1.6,3.5-3.5-1.6-3.5-3.5-3.5-3.5,1.6-3.5,3.5Z"/>
                <path class="st8" d="M123.6,70.4c-.1-.6-.6-1.2-1.1-1.6-.5-.4-1.2-.6-1.8-.8-1.3-.3-2.6,0-3.8.4-1.2.4-2.3,1-3.3,1.7-1,.8-1.8,1.7-2.3,2.8h.1c.7-.8,1.6-1.5,2.6-2.1,1-.5,2.1-.9,3.1-1.1,1.1-.2,2.2,0,3.2,0,1,0,2,.2,3.1.8h.1Z"/>
                <g>
                  <path class="st8" d="M122.4,69.7c.2.4.5.8.8,1.1.3.3.8.5,1.2.6.4.2.9.3,1.4.2.5,0,.9-.3,1.2-.6h0c-.4.2-.8.3-1.2.3-.4,0-.8-.2-1.1-.4-.4-.2-.7-.5-1-.7-.4-.2-.7-.4-1.2-.6h0Z"/>
                  <path class="st8" d="M122.3,69.8c.3.4.7.6,1.1.7.4.2.9.2,1.4.1.5,0,.9,0,1.4-.3.4-.2.7-.6.9-1h0c-.2.3-.6.6-1,.7-.4.1-.8.1-1.2,0-.4,0-.8-.2-1.2-.3-.4,0-.8-.1-1.3-.1h0Z"/>
                </g>
              </g>
            </g>
            <path class="st14" d="M86.5,64.9c1.3,0,2.5.3,3.7.6,1.2.3,2.3.8,3.3,1.4,1,.6,1.8,1.5,2.4,2.5.7,1,1,2.2,1.3,3.4,0-1.3,0-2.6-.7-3.8-.2-.6-.7-1.2-1.1-1.7l-.7-.7c-.2-.2-.5-.4-.8-.6-1.1-.7-2.4-1.2-3.7-1.3-1.3-.2-2.6-.2-3.8.1Z"/>
            <path class="st14" d="M119.8,64.9c-1.3,0-2.5.3-3.7.6-1.2.3-2.3.8-3.3,1.4-1,.6-1.8,1.5-2.4,2.5-.7,1-1,2.2-1.3,3.4,0-1.3,0-2.6.7-3.8.2-.6.7-1.2,1.1-1.7l.7-.7c.2-.2.5-.4.8-.6,1.1-.7,2.4-1.2,3.7-1.3,1.3-.2,2.6-.2,3.8.1Z"/>
            <path class="st15" d="M81.5,64.3c.7-.7,1.4-1.2,2.3-1.8.4-.3.9-.5,1.3-.7.2-.1.5-.2.7-.3.2-.1.5-.2.7-.3.3,0,.5-.2.8-.3l.8-.3c.3,0,.5-.1.8-.2.1,0,.3,0,.4,0,.1,0,.3,0,.4,0,.3,0,.6,0,.8,0,.3,0,.5,0,.8.2.3,0,.5.2.7.3.2.1.5.2.6.4v.2c-1.2.5-2.1.7-2.9.9-.1,0-.2,0-.3,0-.1,0-.2,0-.3,0-.2,0-.4,0-.7,0-.4,0-.9,0-1.4.1-.2,0-.5,0-.7.1-.2,0-.5,0-.7.2-.5.1-.9.2-1.4.4-.9.3-1.8.6-2.7,1.1h-.2Z"/>
            <path class="st15" d="M125.4,64.3c-.7-.7-1.4-1.2-2.3-1.8-.4-.3-.9-.5-1.3-.7-.2-.1-.5-.2-.7-.3-.2-.1-.5-.2-.7-.3-.3,0-.5-.2-.8-.3l-.8-.3c-.3,0-.5-.1-.8-.2-.1,0-.3,0-.4,0-.1,0-.3,0-.4,0-.3,0-.6,0-.8,0-.3,0-.5,0-.8.2-.3,0-.5.2-.7.3-.2.1-.5.2-.6.4v.2c1.2.5,2.1.7,2.9.9.1,0,.2,0,.3,0,.1,0,.2,0,.3,0,.2,0,.4,0,.7,0,.4,0,.9,0,1.4.1.2,0,.5,0,.7.1.2,0,.5,0,.7.2.5.1.9.2,1.4.4.9.3,1.8.6,2.7,1.1h.2Z"/>
            <path class="st14" d="M91.9,95.1s6.4-.5,7.9-2.1c0,0,2.6,2.9,6.4,0,0,0,5,2.9,8.1,2.1,0,0-10.2,4.8-22.4,0Z"/>
          </g>
          <path class="st14" d="M68.6,67.3c-3.4,0-6.1,2.7-6.1,6.1s2.7,6.1,6.1,6.1v-12.2Z"/>
          <path class="st14" d="M136.9,67.3c3.4,0,6.1,2.7,6.1,6.1s-2.7,6.1-6.1,6.1v-12.2Z"/>
          <path class="st15" d="M73.7,59.4s-1.8,7.9-5.4,12.3c0,0-1.1-5.1-.6-12.3.5-7.2,6.1,0,6.1,0Z"/>
          <path class="st15" d="M131.8,59.4s1.8,7.9,5.4,12.3c0,0,1.1-5.1.6-12.3-.5-7.2-6.1,0-6.1,0Z"/>
          <path class="st17" d="M140.3,59.3c0-20.5-16.6-37.2-37.2-37.2s-37.2,16.6-37.2,37.2h74.4Z"/>
          <g>
            <g class="st12">
              <path class="st20" d="M103.5,30.3c3.5-5.6,10.7-4.8,16.5-1.1s10.3,9.8,6.8,15.4c-3.5,5.6-6.4.2-12.2-3.5-5.8-3.6-14.6-5.2-11-10.8Z"/>
            </g>
            <g class="st12">
              <path class="st20" d="M131.4,53.2c-1.6.7-3.5,0-4.2-1.5-.7-1.6,0-3.5,1.5-4.2,1.6-.7,3.5,0,4.2,1.5.7,1.6,0,3.5-1.5,4.2Z"/>
            </g>
          </g>
          <path class="st6" d="M67.7,77.7c0,.5-.4.9-.9.9s-.9-.4-.9-.9.4-.9.9-.9.9.4.9.9Z"/>
          <circle class="st6" cx="138.9" cy="77.7" r=".9"/>
        </g>
        <g>
          <path class="st11" d="M157.1,184v-10.2c0-25.1-20.5-45.6-45.6-45.6h-15.4c-25.1,0-45.6,20.5-45.6,45.6v10.2h106.6Z"/>
          <path class="st18" d="M125.2,130.3c-2.6,9.6-11.5,16.7-21.9,16.7s-19.1-6.9-21.8-16.4c-17.9,6.1-30.9,23.2-30.9,43.1v10.2h106.6v-10.2c0-20.3-13.4-37.6-31.9-43.5Z"/>
          <path class="st23" d="M67.7,184l4.8-16s3.2,15,9.4,16c6.2,1-14.3,0-14.3,0Z"/>
          <path class="st23" d="M140.4,184l-4.8-16s-3.2,15-9.4,16c-6.2,1,14.3,0,14.3,0Z"/>
          <g>
            <path class="st9" d="M81.5,132.8c-.3-.7-.5-1.4-.7-2.1-17.9,6.1-30.9,23.2-30.9,43.1v10.2h2.5v-8.1c0-19.9,12.3-36.9,29.2-43.1Z"/>
            <path class="st19" d="M102.5,150.5c8.5,0,15.8-5.1,19.3-12.6-4,6.3-11.1,10.5-19.2,10.5s-16.7-5.2-20.4-12.7c3.1,8.6,11,14.7,20.2,14.7Z"/>
            <path class="st9" d="M156.4,173.8c0-20.3-13.4-37.6-31.9-43.5-.2.8-.5,1.5-.8,2.3,17.2,6,29.8,23.2,29.8,43.3v8.1h2.8v-10.2h0Z"/>
          </g>
          <path class="st2" d="M123.9,129.8c-2.1,10.1-11,17.7-21.7,17.7s-19.4-7.4-21.6-17.2"/>
          <line class="st0" x1="67.7" y1="184" x2="72.6" y2="168"/>
          <line class="st0" x1="139.9" y1="184" x2="135.1" y2="168"/>
        </g>
      </g>
    </g>
    <g class="st16">
      <path class="st1" d="M104,75.3s-1.9,7.7,3.4,8.2-2.6,3.6-5.2,2.8"/>
    </g>
  </g>
  <circle class="st5" cx="103.4" cy="98.8" r="85.6"/>
  <circle class="st4" cx="103.4" cy="98.8" r="85.6"/>
</svg>