<?xml version="1.0" encoding="UTF-8"?>
<svg id="Capa_1" xmlns="http://www.w3.org/2000/svg" version="1.1" viewBox="0 0 1557.7 681.1">
  <!-- Generator: Adobe Illustrator 29.1.0, SVG Export Plug-In . SVG Version: 2.1.0 Build 54)  -->
  <defs>
    <style>
      .st0 {
        fill: #efeaea;
      }

      .st1 {
        fill: #f04e23;
      }
    </style>
  </defs>
  <g>
    <path class="st1" d="M260.6,65.5C151.4,22.8,47.3,119.9,43.1,226.3c-2.6,66.4,35.4,125.1,67.5,180.1,21.8,37.3,39.4,74.9,51.5,116.5,6.3,21.7,10.1,44.2,14.9,66.4-3.5,14.3-5.3,29-5,44.2.1,6.8,11.6,8,13.3,1.6.6-2.1,1.3-4.2,1.9-6.3,1.6,4.9,3.3,9.7,5.2,14.4,3.3,8.2,16.8,6.5,17.3-2.6,1.2-20.7-.4-42-4-63.2,15.7-35.6,35.8-68.1,60.4-101.1,34-45.7,70.4-89.5,94.9-141.3,47.6-101,6.3-227.7-100.5-269.5ZM196.5,279.6c-24.5-2.8-41.6-27.9-38.4-55.9,3.3-28,25.7-48.4,50.2-45.5,24.5,2.9,41.7,27.9,38.4,55.9-3.3,28-25.7,48.4-50.2,45.5Z"/>
    <g>
      <path d="M257.8,62.1C148.6,19.4,44.5,116.5,40.3,222.9c-2.6,66.3,35.4,125.1,67.5,180.1,21.8,37.3,39.4,74.9,51.5,116.5,6.3,21.7,10.1,44.2,14.9,66.4-3.5,14.3-5.3,29-5,44.2.1,6.8,11.5,8,13.3,1.6.6-2.1,1.3-4.2,1.9-6.3,1.6,4.9,3.3,9.7,5.2,14.4,3.3,8.2,16.8,6.5,17.3-2.6,1.2-20.7-.4-42-4-63.2,15.7-35.6,35.8-68.1,60.4-101.1,34-45.7,70.4-89.5,94.9-141.3,47.7-101,6.4-227.7-100.4-269.5ZM297.9,386.6c-31.8,46.2-76.2,94-103.7,147.1-6.2-23.6-14-46.7-22-68.5-23-62.7-66.4-115.7-91.4-177.7-46.8-116.1,60-241.8,181.3-189.2,55.7,24.2,90.8,86.8,91.6,145.9.7,52.7-26.9,100.3-55.8,142.3Z"/>
      <path d="M188.5,164.5c-5.4,2.6-7,8.1-5.4,12.7-7.9,2.3-15.4,6.4-21.8,11.9-20.8,18-20.6,46.8-8.5,69.5,16.2,30.4,50,46.7,80.3,26.6,23.1-15.3,34-48.1,31-74.6-3.8-33.5-43.1-61.7-75.5-46.1ZM222.9,255.4c-9.4,11.9-21.5,13.1-33,3.8-12.2-9.9-21.8-29.4-13.3-44.2,9.1-15.9,30.8-16.1,46.7-16.7,4.4,3.3,8.1,7.8,10.4,14.6,4.9,14.2-2.2,31.5-10.9,42.5Z"/>
    </g>
  </g>
  <g>
    <path class="st0" d="M424.5,203.7h95.1v38.3h-27.7v254.7h-39.5v-254.7h-27.9v-38.3Z"/>
    <path class="st0" d="M565.6,301.3c1.3-2,2.6-5,4-9,3.7-10.2,8-16.9,12.9-20.1,3.4-2.3,8.2-3.4,14.6-3.4v42.6c-8.7,2.3-15.6,6.7-20.7,13.3-7.2,9.5-10.8,17.5-10.8,24.1v147.9h-34.3v-185.4c0-7.2-2.6-13-7.7-17.4l20.8-25.1c6.9,2.6,11.8,6,14.8,10.2,2.9,4.1,5.1,11.6,6.5,22.4Z"/>
    <path class="st0" d="M653,479.8c-7.5,12.8-15.2,19.2-23.2,19.2s-14.6-4.6-19.8-13.7c-8.2-14.3-12.3-43.1-12.3-86.6v-27.1c0-35.3,7.5-62.4,22.4-81.2,11.5-14.4,27-21.6,46.4-21.6h16v169c0,10.4.7,17.8,2.2,22,1.5,4.3,3.7,7.6,6.6,10.1l-19.9,29c-4.1-1.2-7.5-3.1-10.1-5.7-2.6-2.6-5.4-7.1-8.3-13.6ZM648.1,312.1c-5.5,3-9.6,8-12.2,15s-4,21.1-4,42.1v41.3c0,26.2,1.8,43.2,5.3,50.9,1.5,3.2,3.4,4.9,5.6,4.9s4.1-.8,5.3-2.3v-151.9Z"/>
    <path class="st0" d="M748.8,271.1h33.8l-26.7,227.9h-31.4l-27.6-227.9h33.6l9.8,183.8,8.5-183.8Z"/>
    <path class="st0" d="M872.5,495.6c-5.4,2.3-11.6,3.4-18.5,3.4-17.3,0-32.4-8.4-45.2-25.2-12.8-16.8-19.3-46.5-19.3-89.1v-25.9c0-34.5,5.2-59.4,15.5-74.6,7-10.3,16.1-15.5,27.4-15.5s24.4,6.1,31.4,18.4c7,12.3,10.5,27.1,10.5,44.5s-4.2,37.4-12.7,49.8c-8.5,12.3-20.4,20.9-35.8,25.7.2,18.8,4.3,33.4,12.1,43.8,5.6,7.4,12.3,11.1,20,11.1s8.4-1.5,14.6-4.5v37.9ZM833.1,304.4c-3.1,4.8-5.2,9-6.2,12.6-1.8,6.8-2.7,14.8-2.7,23.9v29.3c5.2-2.3,9.2-6.2,12.1-11.9,2.8-5.6,4.3-14.2,4.3-25.7s-2.5-22-7.5-28.2Z"/>
    <path class="st0" d="M896.4,203.7h34.3v246.7c0,7.3.8,12.5,2.3,15.6,1.6,3.1,4.3,5.7,8.3,7.7l-26.1,25.2c-6.3-2.2-11-5.6-14.1-10.2-3.1-4.7-4.7-11.4-4.7-20.1V203.7Z"/>
    <path class="st0" d="M961.8,203.7h25c22.6,0,40.6,7.1,53.9,21.3,13.3,14.2,19.9,34,19.9,59.4s-8.7,47.9-26.1,63.3c9.6,6.8,16.7,14.5,21.2,23,6.6,12.1,9.9,26.7,9.9,43.7s-3.2,31.9-9.5,45.1c-4.8,9.8-12.8,18.5-24,26-11.2,7.5-24.7,11.2-40.3,11.2h-30V203.7ZM1001.4,245.9v81.9c13.1-6,19.6-19.5,19.6-40.7s-2.5-23.1-7.4-31.2c-3.6-5.7-7.7-9.1-12.2-10ZM1001.4,370.5v83.9c6.6-2,12.1-6.5,16.5-13.4,4.4-6.9,6.6-15.9,6.6-27s-2.1-18.4-6.2-26.2c-4.1-7.8-9.8-13.6-17-17.4Z"/>
    <path class="st0" d="M1087.4,203.7h34.3v246.7c0,7.3.8,12.5,2.3,15.6,1.6,3.1,4.3,5.7,8.3,7.7l-26.1,25.2c-6.3-2.2-11-5.6-14.1-10.2-3.1-4.7-4.7-11.4-4.7-20.1V203.7Z"/>
    <path class="st0" d="M1186.6,268.8c9.9,0,18.4,5.8,25.3,17.3,11.4,18.9,17.1,51.6,17.1,97.9s-5.8,78.8-17.3,97.9c-6.8,11.4-15.2,17.1-25.2,17.1s-18.4-5.8-25.3-17.3c-11.4-18.8-17.1-51.4-17.1-97.8s5.8-78.9,17.3-97.9c6.8-11.5,15.2-17.3,25.2-17.3ZM1186.6,308.1c-1.9,2.4-3.4,5.6-4.5,9.5-.8,2.9-1.6,12.5-2.3,28.9-1.1,26.2-1.6,43.5-1.6,51.8,0,34,2.8,54.6,8.4,61.6,1.8-2,3.2-4.8,4.3-8.3.7-2.4,1.5-12.5,2.3-30.4,1.2-26.7,1.8-44.1,1.8-52.3,0-34.4-2.8-54.7-8.4-60.9Z"/>
    <path class="st0" d="M1289.8,268.8c9.9,0,18.4,5.8,25.3,17.3,11.4,18.9,17.1,51.6,17.1,97.9s-5.8,78.8-17.3,97.9c-6.8,11.4-15.2,17.1-25.2,17.1s-18.4-5.8-25.3-17.3c-11.4-18.8-17.1-51.4-17.1-97.8s5.8-78.9,17.3-97.9c6.8-11.5,15.2-17.3,25.2-17.3ZM1289.8,308.1c-1.9,2.4-3.4,5.6-4.5,9.5-.8,2.9-1.6,12.5-2.3,28.9-1.1,26.2-1.6,43.5-1.6,51.8,0,34,2.8,54.6,8.4,61.6,1.8-2,3.2-4.8,4.3-8.3.7-2.4,1.5-12.5,2.3-30.4,1.2-26.7,1.8-44.1,1.8-52.3,0-34.4-2.8-54.7-8.4-60.9Z"/>
    <path class="st0" d="M1385.9,285.5c4.5-6.5,8.7-10.9,12.4-13.2,3.7-2.3,8-3.5,12.9-3.5,10.1,0,18.2,5.6,24.2,16.7,6.5-7.5,11.1-12,13.7-13.5,3.5-2.2,7.5-3.2,11.9-3.2,7.7,0,13.9,2.9,18.6,8.8,6,7.5,9,18.3,9,32.3v186.7h-34.3v-182.6c0-4-.7-6.8-2.2-8.6-1.4-1.8-3.2-2.7-5.2-2.7s-2.7.6-4.1,1.8c-1.4,1.2-2.9,3-4.5,5.4v186.7h-34.3v-182.6c0-4-.8-6.9-2.3-9-1.2-1.6-2.7-2.3-4.6-2.3s-2.9.6-4.4,1.8c-1.5,1.2-3,3-4.5,5.4v186.7h-34.3v-190.2c0-5.9-1.9-10.4-5.8-13.7l20.2-24c8.7,3.1,14.6,8.7,17.7,16.7Z"/>
  </g>
</svg>