<?xml version="1.0" encoding="UTF-8"?>
<svg id="Layer_1" xmlns="http://www.w3.org/2000/svg" version="1.1" xmlns:xlink="http://www.w3.org/1999/xlink" viewBox="0 0 198.2 193.9">
  <!-- Generator: Adobe Illustrator 29.1.0, SVG Export Plug-In . SVG Version: 2.1.0 Build 54)  -->
  <defs>
    <style>
      .st0 {
        fill: #76b7b7;
      }

      .st1 {
        fill: #ef7159;
      }

      .st2 {
        fill: #f2412a;
      }

      .st3 {
        fill: #fff;
      }

      .st4 {
        fill: #d37d6c;
      }

      .st5 {
        fill: #1f0100;
      }

      .st6, .st7, .st8, .st9, .st10, .st11 {
        fill: none;
      }

      .st12 {
        fill: #421301;
      }

      .st13 {
        fill: url(#radial-gradient);
      }

      .st14 {
        opacity: .6;
      }

      .st15 {
        clip-path: url(#clippath-1);
      }

      .st7 {
        stroke: #666232;
        stroke-width: .7px;
      }

      .st7, .st10 {
        stroke-linecap: round;
        stroke-linejoin: round;
      }

      .st8 {
        stroke: url(#linear-gradient);
        stroke-width: 2px;
      }

      .st8, .st9, .st11 {
        stroke-miterlimit: 10;
      }

      .st16 {
        fill: #c1be95;
      }

      .st9 {
        stroke: #db4958;
        stroke-width: 4.9px;
      }

      .st17 {
        fill: #a5a265;
      }

      .st10 {
        stroke: #76b7b7;
        stroke-width: 3.5px;
      }

      .st18 {
        fill: #2b0b01;
      }

      .st19 {
        fill: #f29883;
      }

      .st11 {
        stroke: #ef7159;
        stroke-width: 1.1px;
      }

      .st20 {
        clip-path: url(#clippath);
      }

      .st21 {
        fill: #a33c31;
      }

      .st22 {
        fill: #666232;
        isolation: isolate;
        opacity: .2;
      }
    </style>
    <radialGradient id="radial-gradient" cx="94.8" cy="-76.2" fx="94.8" fy="-76.2" r="85.6" gradientTransform="translate(0 24.8) scale(1 -1)" gradientUnits="userSpaceOnUse">
      <stop offset="0" stop-color="#b4d7d7"/>
      <stop offset=".9" stop-color="#7ab9b9"/>
      <stop offset="1" stop-color="#1b858e"/>
    </radialGradient>
    <clipPath id="clippath">
      <circle class="st6" cx="94.8" cy="101" r="85.6"/>
    </clipPath>
    <clipPath id="clippath-1">
      <circle class="st6" cx="94.8" cy="101" r="85.6"/>
    </clipPath>
    <linearGradient id="linear-gradient" x1="8.2" y1="-76.2" x2="181.4" y2="-76.2" gradientTransform="translate(0 24.8) scale(1 -1)" gradientUnits="userSpaceOnUse">
      <stop offset="0" stop-color="#fff" stop-opacity="0"/>
      <stop offset="1" stop-color="#f0b2b8"/>
    </linearGradient>
  </defs>
  <circle class="st13" cx="94.8" cy="101" r="85.6"/>
  <g>
    <g class="st20">
      <g>
        <polygon class="st12" points="61.7 67.2 52.6 136.7 137.9 136.7 132.7 64.7 61.7 67.2"/>
        <g>
          <path class="st19" d="M97,143.5h0c-3.4,0-6.1-2.8-6.1-6.1v-14.6c0-3.4,2.8-6.1,6.1-6.1h0c3.4,0,6.1,2.8,6.1,6.1v14.6c0,3.4-2.8,6.1-6.1,6.1Z"/>
          <path class="st1" d="M97,116.6h0c-3.4,0-6.1,2.8-6.1,6.1v7.7c.9.3,1.9.5,2.9.5h5.9c1.2,0,2.4-.3,3.4-.8v-7.5c0-3.4-2.8-6.1-6.1-6.1Z"/>
          <g>
            <path class="st19" d="M95.8,126.2h1.5c18.7-4.2,34.4-15.6,34.3-34.6v-26.9c-.2-19-15.7-34.4-34.7-34.3h-1.5c-19,0-34.4,15.6-34.3,34.6v26.9c.2,19,17.5,29.8,34.7,34.3Z"/>
            <path class="st2" d="M103.7,105.2c-1,.7-2.1,1.4-3.2,1.9-1.1.5-2.3.9-3.5,1-1.2.2-2.4,0-3.5-.4-1.2-.4-2.2-1.1-3.2-1.8.8,1,1.7,2,3,2.5.6.3,1.3.5,1.9.6h1c.3,0,.7,0,1,0,1.3-.2,2.6-.6,3.7-1.3,1.1-.7,2.1-1.5,2.9-2.6Z"/>
            <path class="st1" d="M110.9,96.1c0,3.9,3,2.8,6.8,2.9,3.9,0,7.1,1.3,7.2-2.6,0-3.9-3-7.1-6.8-7.2-3.9,0-7.1,3-7.2,6.8Z"/>
            <path class="st1" d="M67.1,95.9c0,3.9,3,3.7,6.8,3.7,3.9,0,7.1.4,7.2-3.4s-3-7.1-6.8-7.2c-3.9,0-7.1,3-7.2,6.8Z"/>
            <g>
              <path class="st3" d="M84.4,77.8c3.4,1.6,5.1,4.6,3.8,6.5-1.3,2-5.2,2.2-8.6.6-3.4-1.6-5.1-4.6-3.8-6.5,1.3-2,5.2-2.2,8.6-.6Z"/>
              <path class="st5" d="M85.5,80.6c0,2-1.6,3.6-3.6,3.6s-3.6-1.6-3.6-3.6,1.6-3.6,3.6-3.6c2,0,3.6,1.6,3.6,3.6Z"/>
              <path class="st5" d="M75.7,78.3c.1-.6.6-1.2,1.1-1.6.6-.4,1.2-.6,1.8-.8,1.3-.3,2.6,0,3.8.4,1.2.4,2.3,1,3.3,1.7,1,.8,1.8,1.7,2.3,2.8h-.1c-.7-.8-1.6-1.6-2.6-2.1-1-.5-2.1-.9-3.2-1.1-1.1-.2-2.2,0-3.2,0-1,0-2,.2-3.1.8h-.1Z"/>
              <g>
                <path class="st5" d="M77.7,77.1c-.2.4-.5.8-.8,1.1-.3.3-.8.5-1.2.6-.4.2-.9.3-1.4.2-.5,0-.9-.3-1.2-.6h0c.4.2.8.3,1.2.3.4,0,.8-.2,1.1-.4.4-.2.7-.5,1-.7.4-.2.7-.4,1.2-.6h0Z"/>
                <path class="st5" d="M77.7,77.1c-.3.4-.7.6-1.2.7-.4.2-.9.2-1.4.1-.5,0-.9,0-1.4-.3-.4-.2-.7-.6-.9-1h0c.2.3.6.6,1,.7.4.1.8.1,1.2,0,.4,0,.8-.2,1.2-.3.4,0,.8-.1,1.3-.1h0Z"/>
              </g>
              <g>
                <path class="st3" d="M108.6,77.8c-3.4,1.6-5.1,4.6-3.8,6.5,1.3,2,5.2,2.2,8.6.6,3.4-1.6,5.1-4.6,3.8-6.5-1.3-2-5.2-2.2-8.6-.6Z"/>
                <path class="st5" d="M107.5,80.6c0,2,1.6,3.6,3.6,3.6s3.6-1.6,3.6-3.6-1.6-3.6-3.6-3.6-3.6,1.6-3.6,3.6Z"/>
                <path class="st5" d="M117.2,78.3c-.1-.6-.6-1.2-1.1-1.6-.6-.4-1.2-.6-1.8-.8-1.3-.3-2.6,0-3.8.4-1.2.4-2.3,1-3.3,1.7-1,.8-1.8,1.7-2.3,2.8h.1c.7-.8,1.6-1.6,2.6-2.1,1-.5,2.1-.9,3.2-1.1,1.1-.2,2.2,0,3.2,0,1,0,2,.2,3.1.8h.1Z"/>
                <g>
                  <path class="st5" d="M116,77.6c.2.4.5.8.8,1.1.3.3.8.5,1.2.6.4.2.9.3,1.4.2.5,0,.9-.3,1.2-.6h0c-.4.2-.8.3-1.2.3-.4,0-.8-.2-1.1-.4-.4-.2-.7-.5-1-.7-.4-.2-.7-.4-1.2-.6h0Z"/>
                  <path class="st5" d="M116,77.7c.3.4.7.6,1.2.7.4.2.9.2,1.4.1.5,0,.9,0,1.4-.3.4-.2.7-.6.9-1h0c-.3.3-.6.6-1,.7-.4.1-.8.1-1.2,0-.4,0-.8-.2-1.2-.3-.4,0-.8-.1-1.3-.1h0Z"/>
                </g>
              </g>
            </g>
            <path class="st1" d="M80.1,72.8c1.3,0,2.5.3,3.7.6,1.2.3,2.3.8,3.3,1.4,1,.6,1.8,1.5,2.4,2.6.7,1,1,2.2,1.3,3.5,0-1.3,0-2.6-.7-3.8-.2-.6-.7-1.2-1.1-1.7l-.7-.7c-.2-.2-.5-.4-.8-.6-1.1-.7-2.4-1.2-3.7-1.4-1.3-.2-2.6-.2-3.9.1Z"/>
            <path class="st1" d="M113.4,72.8c-1.3,0-2.5.3-3.7.6-1.2.3-2.3.8-3.3,1.4-1,.6-1.8,1.5-2.4,2.6-.7,1-1,2.2-1.3,3.5,0-1.3,0-2.6.7-3.8.2-.6.7-1.2,1.1-1.7l.7-.7c.2-.2.5-.4.8-.6,1.1-.7,2.4-1.2,3.7-1.4,1.3-.2,2.6-.2,3.9.1Z"/>
            <path class="st12" d="M74.9,72.2c.7-.7,1.4-1.2,2.3-1.8.4-.3.9-.5,1.3-.8.2-.1.5-.2.7-.3.2-.1.5-.2.7-.3.3,0,.5-.2.8-.3l.8-.3c.3,0,.5-.1.8-.2s.3,0,.4,0c.1,0,.3,0,.4,0,.3,0,.6,0,.8,0,.3,0,.5.1.8.2.3,0,.5.2.7.3.2.1.5.2.6.4v.2c-1.2.5-2.1.7-2.9.9-.1,0-.2,0-.3,0-.1,0-.2,0-.3,0-.2,0-.4,0-.7,0-.4,0-.9,0-1.4.1-.2,0-.5,0-.7.1-.2,0-.5.1-.7.2-.5.1-.9.2-1.4.4-.9.3-1.8.7-2.7,1.1h-.2Z"/>
            <path class="st12" d="M119,72.2c-.7-.7-1.4-1.2-2.3-1.8-.4-.3-.9-.5-1.3-.8-.2-.1-.5-.2-.7-.3-.2-.1-.5-.2-.7-.3-.3,0-.5-.2-.8-.3l-.8-.3c-.3,0-.5-.1-.8-.2s-.3,0-.4,0c-.1,0-.3,0-.4,0-.3,0-.6,0-.8,0-.3,0-.5.1-.8.2-.3,0-.5.2-.7.3-.2.1-.5.2-.6.4v.2c1.2.5,2.1.7,2.9.9.1,0,.2,0,.3,0,.1,0,.2,0,.3,0,.2,0,.4,0,.7,0,.4,0,.9,0,1.4.1.2,0,.5,0,.7.1.2,0,.5.1.7.2.5.1.9.2,1.4.4.9.3,1.8.7,2.7,1.1h.2Z"/>
            <path class="st2" d="M85.5,103.1s6.4-.5,7.9-2.1c0,0,2.6,2.9,6.4,0,0,0,5,2.9,8.1,2.1,0,0-10.2,4.8-22.4,0Z"/>
          </g>
          <path class="st4" d="M62,75.2c-3.4,0-6.1,2.7-6.1,6.1s2.7,6.1,6.1,6.1v-12.3Z"/>
          <path class="st4" d="M130.6,75.2c3.4,0,6.1,2.7,6.1,6.1s-2.7,6.1-6.1,6.1v-12.3Z"/>
          <path class="st19" d="M150.7,207v-26.3c0-25.2-20.6-45.7-45.7-45.7h-15.4c-25.2,0-45.7,20.6-45.7,45.7v26.3h106.9Z"/>
          <path class="st17" d="M118.7,137.2c-2.6,9.7-11.5,16.8-22,16.8s-19.2-7-21.9-16.5c-18,6.2-31,23.3-31,43.3v26.3h106.9v-26.3c0-20.4-13.5-37.7-32-43.6Z"/>
          <g>
            <path class="st16" d="M74.9,139.6c-.3-.7-.5-1.4-.7-2.2-18,6.2-31,23.3-31,43.3v26.3h2.5v-24.2c0-19.9,12.3-37,29.3-43.2Z"/>
            <path class="st17" d="M95.9,157.4c8.5,0,15.9-5.2,19.4-12.7-4.1,6.4-11.2,10.6-19.3,10.6s-16.7-5.2-20.5-12.7c3.1,8.6,11,14.8,20.3,14.8Z"/>
            <path class="st16" d="M150,180.8c0-20.4-13.5-37.7-32-43.6-.2.8-.5,1.5-.8,2.3,17.3,6,29.9,23.3,29.9,43.4v24.2h2.8v-26.3h0Z"/>
          </g>
          <path class="st10" d="M117.4,136.7c-2.1,10.1-11,17.8-21.8,17.8s-19.4-7.4-21.7-17.3"/>
          <line class="st7" x1="61" y1="207" x2="65.9" y2="175"/>
          <path class="st22" d="M61,207l4.9-32s3.2,31,9.5,32c6.2,1-14.3,0-14.3,0Z"/>
          <path class="st22" d="M134,207l-4.9-32s-3.2,31-9.5,32,14.3,0,14.3,0Z"/>
          <line class="st7" x1="133.5" y1="207" x2="128.6" y2="175"/>
          <path class="st18" d="M67.1,67.3s-1.8,7.9-5.5,12.3c0,0-1.1-5.1-.6-12.4.5-7.2,6.1,0,6.1,0Z"/>
          <path class="st18" d="M125.5,67.3s1.8,7.9,5.5,12.3c0,0,1.1-5.1.6-12.4-.5-7.2-6.1,0-6.1,0Z"/>
          <path class="st12" d="M134,67.2c0-20.6-16.7-37.3-37.3-37.3s-37.3,16.7-37.3,37.3h74.6Z"/>
          <g>
            <g class="st14">
              <path class="st21" d="M97.1,38.1c3.5-5.6,10.7-4.8,16.5-1.1,5.8,3.7,10.3,9.8,6.8,15.4-3.5,5.6-6.5.2-12.3-3.5-5.8-3.7-14.6-5.2-11.1-10.8Z"/>
            </g>
            <g class="st14">
              <path class="st21" d="M125,61c-1.6.7-3.5,0-4.2-1.5-.7-1.6,0-3.5,1.5-4.2,1.6-.7,3.5,0,4.2,1.5s0,3.5-1.5,4.2Z"/>
            </g>
          </g>
          <path class="st0" d="M61.1,85.7c0,.5-.4.9-.9.9s-.9-.4-.9-.9.4-.9.9-.9.9.4.9.9Z"/>
          <path class="st0" d="M133.5,85.7c0,.5-.4.9-.9.9s-.9-.4-.9-.9.4-.9.9-.9.9.4.9.9Z"/>
        </g>
      </g>
    </g>
    <g class="st15">
      <path class="st11" d="M96.4,83.7s-1.9,7.7,3.4,8.2-2.6,3.6-5.2,2.8"/>
    </g>
  </g>
  <circle class="st9" cx="94.8" cy="101" r="85.6"/>
  <circle class="st8" cx="94.8" cy="101" r="85.6"/>
</svg>