<?xml version="1.0" encoding="UTF-8"?>
<svg id="Layer_1" xmlns="http://www.w3.org/2000/svg" version="1.1" viewBox="0 0 616 623">
  <!-- Generator: Adobe Illustrator 29.1.0, SVG Export Plug-In . SVG Version: 2.1.0 Build 54)  -->
  <defs>
    <style>
      .st0 {
        fill: #fff;
      }
    </style>
  </defs>
  <path class="st0" d="M175.7,34.2c23.9-4.9,27.8,28.1,7.5,31.5-21.9,3.7-25-27.9-7.5-31.5Z"/>
  <path class="st0" d="M432.3,61.7c-8.9-8.2-4.6-26.1,8.1-27.7s13.5,1.3,17.1,8c9.2,17-11.9,31.9-25.2,19.7Z"/>
  <path class="st0" d="M46.8,165.2c22.1-3.3,25.2,33.6,1.1,32.2-19.9-1.1-19.9-29.4-1.1-32.2Z"/>
  <path class="st0" d="M44.7,34.2c22.9-4.3,27.1,26.9,8.3,31.3-22.1,5.2-27.6-27.7-8.3-31.3Z"/>
  <path class="st0" d="M176.7,297.2c25.3-4.7,26.4,35.1.9,31.7-17.2-2.3-17.7-28.6-.9-31.7Z"/>
  <path class="st0" d="M440.7,560.2c24.3-4,26,35-.3,31.8s-17.1-28.9.3-31.8Z"/>
  <path class="st0" d="M571.7,560.2c21.4-3.8,26.3,27.1,8.3,31.3-23.8,5.6-28.2-27.8-8.3-31.3Z"/>
  <path class="st0" d="M323.7,38.3c16,16-11.4,39.9-24.7,21.2s11.3-34.6,24.7-21.2Z"/>
  <path class="st0" d="M309.8,165.2c22.6-3.3,26.3,35.2-1.3,31.8-16.4-2-17.1-29.1,1.3-31.8Z"/>
  <path class="st0" d="M37.3,324.7c-13.4-13.4,4.2-36.7,21.2-24.7,18.7,13.2-5.2,40.7-21.2,24.7Z"/>
  <path class="st0" d="M439.7,297.2c21.9-4.5,27.3,26.9,8.3,31.3-22.8,5.4-27.6-27.4-8.3-31.3Z"/>
  <path class="st0" d="M43.7,429.2c24.8-5.1,28.3,28.5,7.5,31.6s-24.7-28.1-7.5-31.6Z"/>
  <path class="st0" d="M306.7,429.2c25-5.6,28.6,28.5,7.5,31.6-20.5,3-24.4-27.8-7.5-31.6Z"/>
  <path class="st0" d="M569.7,429.2c25.4-5.7,28.8,28.5,7.5,31.6-13,1.9-22.7-12.8-16.1-24.1s6.2-6.9,8.6-7.4Z"/>
  <path class="st0" d="M323.6,587.7c-12.3,12.9-35.6-2.7-25.5-20s42.2,2.4,25.5,20Z"/>
  <path class="st0" d="M586.7,301.3c13.4,13.4-4.2,36.7-21.2,24.7-18.6-13.2,5.2-40.6,21.2-24.7Z"/>
  <path class="st0" d="M573.8,165.2c20.6-2,24.6,30.9,2.4,32.2-21,1.2-23.1-30.2-2.4-32.2Z"/>
  <path class="st0" d="M45.7,560.2c6.1-1,12.5,1.4,16.1,6.4,11,15.4-8.2,33.2-23.2,22.2-10.6-7.8-5.9-26.5,7.1-28.6Z"/>
  <path class="st0" d="M177.7,560.2c6.4-1,12.6,2,16.3,7.3,5.3,7.8,1.2,22.2-8.7,24.3-24.1,5-28.3-28.2-7.5-31.5Z"/>
  <path class="st0" d="M570.7,34.2c27.6-5.7,26,37.4.2,31.3-15.5-3.7-15.4-28.2-.2-31.3Z"/>
  <path class="st0" d="M178.8,165.2c21.1-2,24.1,31.3,2.4,32.2-21.1.9-22.7-30.2-2.4-32.2Z"/>
  <path class="st0" d="M441.8,165.2c21.5-2.6,25,31.4,2.4,32.2-20.7.8-21.9-29.9-2.4-32.2Z"/>
  <path class="st0" d="M175.7,429.2c26.1-5.4,26.6,31.8,4.8,31.8-19.4,0-21.6-28.3-4.8-31.8Z"/>
  <path class="st0" d="M308.7,297.2c22.4-3.6,25.9,28.2,6.5,31.5s-25.8-28.4-6.5-31.5Z"/>
  <path class="st0" d="M438.7,429.2c22-4.5,28.3,23.5,11.3,30.3-23,9-30.2-26.3-11.3-30.3Z"/>
</svg>