<?xml version="1.0" encoding="UTF-8"?>
<svg id="Layer_1" xmlns="http://www.w3.org/2000/svg" version="1.1" xmlns:xlink="http://www.w3.org/1999/xlink" viewBox="0 0 202.5 188">
  <!-- Generator: Adobe Illustrator 29.1.0, SVG Export Plug-In . SVG Version: 2.1.0 Build 54)  -->
  <defs>
    <style>
      .st0 {
        fill: #76b7b7;
      }

      .st1 {
        fill: #ef7159;
      }

      .st2 {
        fill: #efb284;
      }

      .st3 {
        fill: #fff;
      }

      .st4 {
        stroke: #052f33;
        stroke-width: .7px;
      }

      .st4, .st5, .st6, .st7, .st8, .st9 {
        fill: none;
      }

      .st4, .st8 {
        stroke-linecap: round;
        stroke-linejoin: round;
      }

      .st10 {
        fill: #1f0100;
      }

      .st11 {
        fill: url(#radial-gradient);
      }

      .st12 {
        fill: #ea9963;
      }

      .st13 {
        opacity: .6;
      }

      .st14 {
        clip-path: url(#clippath-1);
      }

      .st6 {
        stroke: url(#linear-gradient);
        stroke-width: 2px;
      }

      .st6, .st7, .st9 {
        stroke-miterlimit: 10;
      }

      .st15 {
        fill: #030723;
      }

      .st7 {
        stroke: #e57e5d;
        stroke-width: 1.1px;
      }

      .st16 {
        opacity: .2;
      }

      .st16, .st17 {
        fill: #096661;
        isolation: isolate;
      }

      .st8 {
        stroke-width: 3.5px;
      }

      .st8, .st9 {
        stroke: #db4958;
      }

      .st9 {
        stroke-width: 4.9px;
      }

      .st18 {
        fill: #303f75;
      }

      .st17 {
        opacity: .8;
      }

      .st19 {
        clip-path: url(#clippath);
      }

      .st20 {
        fill: #a3d8d6;
      }
    </style>
    <radialGradient id="radial-gradient" cx="102.6" cy="316.6" fx="102.6" fy="316.6" r="85.6" gradientTransform="translate(0 412) scale(1 -1)" gradientUnits="userSpaceOnUse">
      <stop offset="0" stop-color="#ffca0e"/>
      <stop offset=".3" stop-color="#fdc411"/>
      <stop offset=".6" stop-color="#f6b218"/>
      <stop offset=".9" stop-color="#ed9a21"/>
      <stop offset="1" stop-color="#b03c02"/>
    </radialGradient>
    <clipPath id="clippath">
      <circle class="st5" cx="102.6" cy="95.4" r="85.6"/>
    </clipPath>
    <clipPath id="clippath-1">
      <circle class="st5" cx="102.6" cy="95.4" r="85.6"/>
    </clipPath>
    <linearGradient id="linear-gradient" x1="16" y1="316.6" x2="189.2" y2="316.6" gradientTransform="translate(0 412) scale(1 -1)" gradientUnits="userSpaceOnUse">
      <stop offset="0" stop-color="#fff" stop-opacity="0"/>
      <stop offset="1" stop-color="#f0b2b8"/>
    </linearGradient>
  </defs>
  <circle class="st11" cx="102.6" cy="95.4" r="85.6"/>
  <g>
    <g class="st19">
      <g>
        <path class="st2" d="M104.2,134.4h0c-3.4,0-6.2-2.8-6.2-6.2v-14.8c0-3.4,2.8-6.2,6.2-6.2h0c3.4,0,6.2,2.8,6.2,6.2v14.8c0,3.4-2.8,6.2-6.2,6.2Z"/>
        <path class="st12" d="M104.2,107.2h0c-3.4,0-6.2,2.8-6.2,6.2v7.8c.9.3,1.9.5,2.9.5h6c1.2,0,2.4-.3,3.5-.8v-7.6c0-3.4-2.8-6.2-6.2-6.2Z"/>
        <g>
          <path class="st2" d="M102.9,116.9h1.6c19.3,0,34.8-15.8,34.8-35.1v-27.3c-.2-19.3-15.9-34.8-35.2-34.8h-1.6c-19.3,0-34.8,15.8-34.8,35.1v27.3c.2,19.3,15.9,34.8,35.2,34.8Z"/>
          <path class="st10" d="M109.6,94.4c-.9.6-1.8,1.2-2.7,1.6-.9.4-1.9.8-2.9.9-1,.1-2,0-3-.3-1-.3-1.9-.9-2.8-1.5.7.8,1.5,1.7,2.5,2.1.5.3,1.1.4,1.6.5h.9c.3,0,.6,0,.9,0,1.1-.1,2.2-.6,3.2-1.1.9-.6,1.8-1.3,2.4-2.2Z"/>
          <path class="st12" d="M110.8,97.3c-1.1.8-2.1,1.4-3.3,1.9-1.1.5-2.3.9-3.5,1-1.2.2-2.4,0-3.6-.4-1.2-.4-2.2-1.1-3.3-1.8.8,1,1.8,2,3,2.5.6.3,1.3.5,1.9.6h1c.3,0,.7,0,1,0,1.3-.2,2.6-.7,3.8-1.4,1.1-.7,2.1-1.6,2.9-2.6Z"/>
          <path class="st1" d="M118.2,82.9c0,3.9,3,2.8,6.9,2.9,3.9,0,7.2,1.3,7.2-2.6,0-3.9-3-7.2-6.9-7.2-3.9,0-7.2,3-7.2,6.9Z"/>
          <path class="st1" d="M73.9,82.7c0,3.9,3,3.7,6.9,3.8,3.9,0,7.2.4,7.2-3.5,0-3.9-3-7.2-6.9-7.2-3.9,0-7.2,3-7.2,6.9Z"/>
          <g>
            <path class="st3" d="M91.4,67.7c3.4.9,5.2,2.5,3.8,3.6s-5.2,1.2-8.7.3c-3.4-.9-5.2-2.5-3.8-3.6,1.3-1.1,5.2-1.2,8.7-.3Z"/>
            <path class="st10" d="M91.5,69.3c0,1.2-.9,2.1-2.1,2.1s-2.1-.9-2.1-2.1.9-2.1,2.1-2.1,2.1.9,2.1,2.1Z"/>
            <path class="st10" d="M82.6,68c.1-.4.6-.7,1.2-.9.6-.2,1.2-.4,1.9-.4,1.3-.2,2.6,0,3.8.2,1.2.2,2.3.5,3.3.9,1,.4,1.8.9,2.3,1.5h-.1c-.7-.5-1.6-.9-2.7-1.1-1-.3-2.1-.5-3.2-.6-1.1-.1-2.2,0-3.3,0-1.1,0-2.1,0-3.1.4h-.1Z"/>
            <g>
              <path class="st3" d="M115.9,67.7c-3.4.9-5.2,2.5-3.8,3.6s5.2,1.2,8.7.3c3.4-.9,5.2-2.5,3.8-3.6-1.3-1.1-5.2-1.2-8.7-.3Z"/>
              <path class="st10" d="M115.5,69.6c0,1.3,1,2.3,2.3,2.3s2.3-1,2.3-2.3-1-2.3-2.3-2.3-2.3,1-2.3,2.3Z"/>
              <path class="st10" d="M124.6,68c-.1-.4-.6-.7-1.2-.9-.6-.2-1.2-.4-1.9-.4-1.3-.2-2.6,0-3.8.2-1.2.2-2.3.5-3.3.9-1,.4-1.8.9-2.3,1.5h.1c.7-.5,1.6-.9,2.7-1.1,1-.3,2.1-.5,3.2-.6,1.1-.1,2.2,0,3.3,0,1.1,0,2.1,0,3.1.4h.1Z"/>
            </g>
          </g>
          <path class="st12" d="M87,62.8c1.3,0,2.5.3,3.7.6,1.2.3,2.4.8,3.4,1.4,1,.6,1.9,1.5,2.5,2.6.7,1,1,2.3,1.4,3.5,0-1.3,0-2.6-.7-3.9-.2-.6-.7-1.2-1.1-1.7l-.7-.7c-.3-.2-.5-.4-.8-.6-1.1-.7-2.4-1.2-3.7-1.4-1.3-.2-2.6-.2-3.9.2Z"/>
          <path class="st12" d="M120.8,62.8c-1.3,0-2.5.3-3.7.6-1.2.3-2.4.8-3.4,1.4-1,.6-1.9,1.5-2.5,2.6-.7,1-1,2.3-1.4,3.5,0-1.3,0-2.6.7-3.9.2-.6.7-1.2,1.1-1.7l.7-.7c.3-.2.5-.4.8-.6,1.1-.7,2.4-1.2,3.7-1.4,1.3-.2,2.6-.2,3.9.2Z"/>
          <path class="st15" d="M78.9,62.3c1.2-1.1,2.6-2,4.1-2.8.7-.4,1.5-.7,2.3-1,.4-.2.8-.3,1.2-.4.4-.1.8-.2,1.2-.3.4,0,.8-.2,1.3-.3l1.3-.3c.4,0,.9,0,1.3,0,.2,0,.4,0,.7,0,.2,0,.4.1.6.2.4.1.8.3,1.3.4.4.2.8.4,1.2.7.4.2.7.5,1,.9.3.4.6.7.9,1.1l-.2.4c-1.9.6-3.3.6-4.7.7-.2,0-.3,0-.5,0-.2,0-.3,0-.5,0-.3,0-.7-.1-1-.2-.7-.1-1.4-.3-2.1-.3-.4,0-.7,0-1.1,0-.4,0-.7,0-1.1,0-.7,0-1.5.1-2.2.3-1.5.2-3,.6-4.5,1.1l-.2-.4Z"/>
          <path class="st15" d="M128,62.7c-1.5-.5-3-.8-4.5-1.1-.8-.1-1.5-.2-2.2-.3-.4,0-.7,0-1.1,0-.4,0-.7,0-1.1,0-.7,0-1.4.1-2.1.3-.3,0-.7.1-1,.2-.2,0-.3,0-.5,0-.2,0-.3,0-.5,0-1.4-.1-2.8-.2-4.7-.7l-.2-.4c.2-.4.6-.8.9-1.1.3-.3.7-.7,1-.9.4-.3.8-.5,1.2-.7.4-.2.8-.3,1.3-.4.2,0,.4-.1.6-.2.2,0,.4,0,.7,0,.4,0,.9,0,1.3,0l1.3.3c.4,0,.8.2,1.3.3.4,0,.8.2,1.2.3.4.1.8.2,1.2.4.8.3,1.5.6,2.3,1,1.5.8,2.8,1.7,4.1,2.8l-.2.4Z"/>
        </g>
        <path class="st12" d="M68.4,63.5c-5.8,0-10.5,4.7-10.5,10.5s4.7,10.5,10.5,10.5v-20.9Z"/>
        <path class="st12" d="M138.7,63.5c5.8,0,10.5,4.7,10.5,10.5s-4.7,10.5-10.5,10.5v-20.9Z"/>
        <path class="st2" d="M158.5,188.4v-16.3c0-25.5-20.8-46.3-46.3-46.3h-15.6c-25.5,0-46.3,20.8-46.3,46.3v16.3h108.3Z"/>
        <path class="st0" d="M126.2,128c-2.7,9.8-11.6,17-22.3,17s-19.4-7-22.2-16.7c-18.2,6.2-31.4,23.6-31.4,43.8v16.3h108.3v-16.3c0-20.6-13.7-38.2-32.4-44.1Z"/>
        <g>
          <path class="st20" d="M81.7,130.5c-.3-.7-.5-1.4-.8-2.2-18.2,6.2-31.4,23.6-31.4,43.8v16.3h2.5v-14.2c0-20.2,12.4-37.5,29.7-43.8Z"/>
          <path class="st17" d="M103,148.5c8.6,0,16.1-5.2,19.7-12.8-4.1,6.4-11.3,10.7-19.5,10.7s-16.9-5.2-20.7-12.9c3.1,8.8,11.1,15,20.6,15Z"/>
          <path class="st20" d="M157.8,172.1c0-20.6-13.7-38.2-32.4-44.2-.2.8-.5,1.5-.8,2.3,17.5,6.1,30.2,23.5,30.2,44v14.2h2.9v-16.3Z"/>
        </g>
        <path class="st16" d="M67.7,188.4l4.9-22.1s3.3,21.1,9.6,22.1c6.3,1-14.5,0-14.5,0Z"/>
        <path class="st16" d="M141.6,188.4l-4.9-22.1s-3.3,21.1-9.6,22.1c-6.3,1,14.5,0,14.5,0Z"/>
        <path class="st8" d="M124.8,127.5c-2.1,10.3-11.2,18-22.1,18s-19.7-7.5-22-17.5"/>
        <line class="st4" x1="67.7" y1="188.4" x2="72.7" y2="166.3"/>
        <line class="st4" x1="141.1" y1="188.4" x2="136.2" y2="166.3"/>
        <path class="st15" d="M140.1,51.9c0-19.6-16.4-35.5-36.4-35.6h0s-.4,0-.4,0c0,0-.1,0-.2,0h0s-.5,0-.5,0c-19.8,0-35.7,16.2-35.7,36v11.9c0,0,1.6,0,1.6,0,17.3,0,31.7-12.4,34.9-28.7,3.4,16.4,18.4,28.8,36.2,28.7h.5s0-12.2,0-12.2Z"/>
        <g>
          <g class="st13">
            <path class="st18" d="M109.9,26c4.5-4.5,11.1-2.2,15.8,2.5,4.7,4.7,7.6,11.5,3.1,16-4.5,4.5-6.1-1.2-10.8-5.9-4.7-4.7-12.6-8.1-8.1-12.6Z"/>
          </g>
          <g class="st13">
            <path class="st18" d="M131.3,53.6c-1.7.4-3.3-.7-3.6-2.3s.7-3.3,2.3-3.6c1.7-.4,3.3.7,3.6,2.3.4,1.7-.7,3.3-2.3,3.6Z"/>
          </g>
        </g>
      </g>
    </g>
    <g class="st14">
      <path class="st7" d="M103.2,67.9s-1.9,7.7,3.4,8.2-2.6,3.6-5.2,2.8"/>
    </g>
  </g>
  <circle class="st9" cx="102.6" cy="95.4" r="85.6"/>
  <circle class="st6" cx="102.6" cy="95.4" r="85.6"/>
</svg>