<?xml version="1.0" encoding="UTF-8"?>
<svg id="Layer_1" xmlns="http://www.w3.org/2000/svg" version="1.1" viewBox="0 0 800 800">
  <!-- Generator: Adobe Illustrator 29.1.0, SVG Export Plug-In . SVG Version: 2.1.0 Build 54)  -->
  <defs>
    <style>
      .st0 {
        fill: #fff;
      }
    </style>
  </defs>
  <path class="st0" d="M781.9,148.1c-12.6,5.6-25.5,10.3-38.7,14.1,15.6-17.7,27.5-38.5,34.8-61.2,1.6-5.1,0-10.7-4.3-14-4.2-3.3-10-3.7-14.6-1-28,16.6-58.3,28.6-90,35.6-32-31.2-75.3-49-120.2-49-94.7,0-171.7,77-171.7,171.7s.5,14.9,1.4,22.2c-117.5-10.3-226.8-68.1-301.8-160.1-2.7-3.3-6.8-5-11-4.7-4.2.3-8,2.7-10.1,6.4-15.2,26.1-23.3,56-23.3,86.4s14.8,80.6,40.9,111.3c-7.9-2.7-15.6-6.2-23-10.3-3.9-2.2-8.8-2.2-12.7,0-3.9,2.2-6.4,6.4-6.5,10.9,0,.8,0,1.5,0,2.3,0,61.8,33.2,117.4,84.1,147.7-4.4-.4-8.7-1.1-13.1-1.9-4.5-.9-9.1.7-12.1,4.1-3,3.4-4,8.2-2.6,12.5,18.8,58.7,67.2,101.9,125.8,115.1-48.6,30.4-104.1,46.4-162.4,46.4s-24.4-.7-36.4-2.1c-5.9-.7-11.6,2.8-13.7,8.5-2,5.7.1,12,5.2,15.2,74.9,48,161.5,73.4,250.4,73.4,174.8,0,284.2-82.5,345.2-151.6,76-86.2,119.6-200.4,119.6-313.2s0-9.5-.2-14.2c30-22.6,55.8-49.9,76.8-81.4,3.2-4.8,2.8-11.1-.9-15.5-3.7-4.4-9.8-5.8-15.1-3.5Z"/>
</svg>