<?xml version="1.0" encoding="UTF-8"?>
<svg id="emoji" xmlns="http://www.w3.org/2000/svg" version="1.1" viewBox="0 0 800 800">
  <!-- Generator: Adobe Illustrator 29.1.0, SVG Export Plug-In . SVG Version: 2.1.0 Build 54)  -->
  <defs>
    <style>
      .st0 {
        fill: #fff;
      }
    </style>
  </defs>
  <g id="line">
    <g>
      <path class="st0" d="M571.2,787.3H228.7c-119,0-215.9-96.9-215.9-215.9V228.8C12.7,109.8,109.6,12.9,228.7,12.9h342.6c57.7,0,111.9,22.4,152.8,63.3,40.9,40.9,63.3,95,63.3,152.8v342.6c0,119-96.9,215.9-215.9,215.9h-.1ZM228.8,44.6c-101.6,0-184.2,82.6-184.2,184.2v342.6c0,101.6,82.6,184.2,184.2,184.2h342.6c101.6,0,184.2-82.6,184.2-184.2V228.8c0-49.2-19.1-95.5-54-130.3s-81-54-130.3-54H228.7h.1Z"/>
      <path class="st0" d="M400,595.2c-107.6,0-195.2-87.6-195.2-195.2s87.6-195.2,195.2-195.2,195.2,87.6,195.2,195.2-87.6,195.2-195.2,195.2h0ZM400,236.7c-90,0-163.3,73.3-163.3,163.3s73.3,163.3,163.3,163.3,163.3-73.3,163.3-163.3-73.3-163.3-163.3-163.3Z"/>
      <circle class="st0" cx="617.6" cy="182.4" r="38.4"/>
    </g>
    <g>
      <path class="st0" d="M571.2,799.9H228.7C102.6,799.9,0,697.2,0,571.2V228.7C0,102.6,102.6,0,228.7,0h342.6C632.2,0,689.7,23.7,733,67c43.2,43.2,67,100.6,67,161.8v342.6c0,126-102.6,228.7-228.7,228.7h-.1ZM228.8,57.3c-94.6,0-171.5,76.9-171.5,171.5v342.6c0,94.6,76.9,171.5,171.5,171.5h342.6c94.6,0,171.5-76.9,171.5-171.5V228.8c0-45.9-17.9-88.9-50.3-121.3-32.4-32.4-75.5-50.3-121.3-50.3H228.7h.1Z"/>
      <path class="st0" d="M400,607.8c-114.6,0-207.8-93.2-207.8-207.8s93.2-207.8,207.8-207.8,207.8,93.2,207.8,207.8-93.2,207.8-207.8,207.8h0ZM400,249.4c-83,0-150.6,67.6-150.6,150.6s67.6,150.6,150.6,150.6,150.6-67.6,150.6-150.6-67.6-150.6-150.6-150.6Z"/>
      <path class="st0" d="M617.6,249.4c-37,0-67-30-67-67s30-67,67-67,67,30,67,67-30,67-67,67ZM617.6,172.5c-5.4,0-9.9,4.4-9.9,9.9s4.4,9.9,9.9,9.9,9.9-4.4,9.9-9.9-4.4-9.9-9.9-9.9Z"/>
    </g>
  </g>
</svg>